<svg id="Layer_1" enable-background="new 0 0 256 256" height="512" viewBox="0 0 256 256" width="512" xmlns="http://www.w3.org/2000/svg"><path d="m225.525 93.167c.001-.104.008-.205.008-.309 0-24.485-19.849-44.333-44.333-44.333-1.824 0-3.618.123-5.385.337-7.043-20.882-26.774-35.924-50.032-35.924-29.163 0-52.804 23.641-52.804 52.804 0 .856.024 1.707.065 2.553-3.977-.96-8.126-1.482-12.399-1.482-29.075 0-52.645 23.57-52.645 52.645s23.57 52.646 52.646 52.646h145.508c23.111 0 41.846-18.735 41.846-41.846 0-16.12-9.119-30.101-22.475-37.091z" fill="#e0ebfc"/><path d="m206.154 174.104h-145.508c-30.132 0-54.646-24.514-54.646-54.646s24.514-54.646 54.646-54.646c3.452 0 6.918.332 10.334.989 0-.02 0-.04 0-.06 0-30.219 24.585-54.804 54.804-54.804 22.999 0 43.451 14.309 51.391 35.771 1.374-.122 2.722-.184 4.025-.184 25.254 0 45.854 20.308 46.326 45.45 13.894 7.763 22.474 22.321 22.474 38.284 0 24.177-19.669 43.846-43.846 43.846zm-145.508-105.291c-27.926 0-50.646 22.719-50.646 50.645s22.72 50.646 50.646 50.646h145.509c21.971 0 39.846-17.875 39.846-39.846 0-14.876-8.201-28.409-21.402-35.317-.659-.346-1.072-1.028-1.072-1.772l.005-.23c.003-23.422-18.988-42.412-42.331-42.412-1.67 0-3.353.105-5.145.322-.94.116-1.832-.448-2.136-1.346-6.973-20.674-26.317-34.563-48.136-34.563-28.014 0-50.804 22.79-50.804 50.804 0 .825.023 1.644.063 2.458.029.629-.238 1.235-.724 1.637-.485.4-1.13.549-1.743.402-3.924-.948-7.937-1.428-11.93-1.428z" fill="#3762cc"/><circle cx="128" cy="182.104" fill="#4671c6" r="60.958"/><circle cx="128" cy="180.236" fill="#f9cfcf" r="45.846"/><path d="m107.372 180.172c.015-4.862 1.727-9.328 4.565-12.851l-14.445-21.268c-9.389 8.388-15.318 20.572-15.337 34.119z" fill="#6bdddd"/><path d="m173.844 180.172c-.019-13.547-5.948-25.73-15.337-34.119l-14.445 21.268c2.839 3.523 4.55 7.989 4.565 12.851z" fill="#f9a7a7"/><path d="m128 245.062c-34.715 0-62.958-28.243-62.958-62.958s28.243-62.958 62.958-62.958 62.958 28.243 62.958 62.958-28.243 62.958-62.958 62.958zm0-121.916c-32.51 0-58.958 26.448-58.958 58.958s26.448 58.958 58.958 58.958 58.958-26.448 58.958-58.958-26.448-58.958-58.958-58.958z" fill="#3762cc"/><path d="m128 159.606c6.488 0 12.278 3.017 16.063 7.715l14.445-21.268c-8.111-7.246-18.801-11.662-30.507-11.662s-22.397 4.416-30.507 11.662l14.445 21.268c3.783-4.698 9.573-7.715 16.061-7.715z" fill="#ffea92"/><path d="m128 228.082c-26.382 0-47.846-21.464-47.846-47.846s21.464-47.846 47.846-47.846 47.846 21.464 47.846 47.846-21.464 47.846-47.846 47.846zm0-91.691c-24.177 0-43.846 19.669-43.846 43.846s19.669 43.846 43.846 43.846 43.846-19.669 43.846-43.846-19.669-43.846-43.846-43.846z" fill="#3762cc"/><path d="m173.844 182.172h-25.216c-1.103 0-1.996-.892-2-1.993-.014-4.261-1.439-8.273-4.123-11.604-3.568-4.43-8.855-6.97-14.505-6.97s-10.937 2.54-14.505 6.97c-2.684 3.33-4.109 7.343-4.123 11.604-.004 1.102-.897 1.993-2 1.993h-25.216c-.531 0-1.04-.211-1.415-.587s-.586-.885-.585-1.416c.019-13.559 5.852-26.537 16.003-35.607 8.786-7.849 20.094-12.171 31.841-12.171s23.055 4.322 31.84 12.171h.001c10.151 9.07 15.984 22.049 16.003 35.607.001.531-.21 1.04-.585 1.416s-.884.587-1.415.587zm-23.312-4h21.263c-.556-11.691-5.816-22.762-14.62-30.628-8.051-7.192-18.412-11.153-29.175-11.153s-21.124 3.961-29.176 11.153c-8.803 7.866-14.063 18.937-14.619 30.628h21.263c.41-4.402 2.119-8.64 4.912-12.106 4.332-5.376 10.754-8.46 17.62-8.46s13.288 3.084 17.62 8.46c2.793 3.466 4.502 7.704 4.912 12.106z" fill="#3762cc"/><path d="m120.841 181.333c-.663 3.538 1.133 7.219 4.488 8.521.87.338 1.81.518 2.78.504 3.234-.045 5.98-2.109 7.035-4.988.447-1.22.474-2.556.228-3.832l-6.284-32.61c-.232-1.196-1.943-1.196-2.176 0z" fill="#4671c6"/><path d="m160.349 70.305c-.059-.566-.148-1.122-.239-1.678h.009c-3.595-27.47-25.274-42.506-30.825-45.938-.789-.488-1.799-.488-2.588 0-5.551 3.432-27.229 18.469-30.825 45.938h.044c-.258 1.569-.438 3.161-.438 4.799 0 17.161 14.556 31.072 32.512 31.072s32.512-13.911 32.512-31.072c.001-1.053-.055-2.094-.162-3.121z" fill="#a4c9ff"/><path d="m116.861 48.693c4.773 0 8.34 2.876 8.34 7.872 0 5.045-3.567 7.921-8.34 7.921-4.774 0-8.34-2.876-8.34-7.921 0-4.996 3.566-7.872 8.34-7.872zm-3.457 7.872c0 3.128 1.317 4.439 3.457 4.439 2.085 0 3.456-1.311 3.456-4.439 0-3.129-1.372-4.39-3.456-4.39-2.14 0-3.457 1.261-3.457 4.39zm23.987-7.216c2.049 0 3.332 2.036 2.313 3.671l-18.837 30.215c-.475.762-1.357 1.232-2.313 1.232-2.049 0-3.332-2.036-2.313-3.671l18.837-30.215c.475-.761 1.357-1.232 2.313-1.232zm1.802 19.981c4.719 0 8.286 2.825 8.286 7.871s-3.567 7.921-8.286 7.921c-4.773 0-8.34-2.875-8.34-7.921s3.567-7.871 8.34-7.871zm-3.512 7.871c0 3.128 1.372 4.389 3.457 4.389s3.457-1.261 3.457-4.389c0-3.129-1.373-4.39-3.457-4.39-2.085 0-3.457 1.262-3.457 4.39z" fill="#4671c6"/></svg>