<svg id="Layer_1" enable-background="new 0 0 256 256" height="512" viewBox="0 0 256 256" width="512" xmlns="http://www.w3.org/2000/svg"><path d="m241.292 128.12c0-59.706-48.401-108.108-108.108-108.108v216.216c59.706 0 108.108-48.402 108.108-108.108z" fill="#eaa97d"/><path d="m133.184 20.012c-59.706 0-108.108 48.402-108.108 108.108 0 59.707 48.401 108.108 108.108 108.108z" fill="#6bdddd"/><path d="m133.184 179.333h-95.227c18.255 33.872 54.051 56.894 95.227 56.894z" fill="#a4c9ff"/><path d="m133.184 236.228c41.176 0 76.972-23.022 95.227-56.894h-95.227z" fill="#ffea92"/><path d="m133.184 238.228c-60.714 0-110.108-49.395-110.108-110.108s49.394-110.108 110.108-110.108c60.713 0 110.107 49.394 110.107 110.107s-49.394 110.109-110.107 110.109zm0-216.216c-58.508 0-106.108 47.6-106.108 106.107 0 58.509 47.6 106.108 106.108 106.108s106.107-47.6 106.107-106.108c.001-58.508-47.599-106.107-106.107-106.107z" fill="#3762cc"/><path d="m91.609 75.496h15.905v11.753h-15.905z" fill="#eaa97d"/><path d="m126.255 72.419-8.187-12.449h2.641c1.38 0 2.228-1.66 1.508-2.953l-7.402-13.301h1.505c1.374 0 2.222-1.646 1.515-2.939l-16.76-30.676c-.686-1.256-2.344-1.256-3.031 0l-16.76 30.676c-.707 1.294.142 2.939 1.515 2.939h1.505l-7.402 13.301c-.72 1.293.128 2.953 1.508 2.953h2.641l-8.187 12.449c-.844 1.284-.009 3.077 1.433 3.077h17.308 15.905 17.308c1.446 0 2.281-1.794 1.437-3.077z" fill="#6bdddd"/><path d="m107.514 89.249h-15.905c-1.104 0-2-.896-2-2v-9.753h-15.309c-1.378 0-2.604-.748-3.279-2-.714-1.324-.647-2.925.176-4.176l6.236-9.483c-.918-.255-1.714-.866-2.227-1.739-.73-1.241-.749-2.794-.049-4.054l5.973-10.732c-.619-.319-1.149-.816-1.528-1.455-.731-1.232-.758-2.78-.07-4.038l16.759-30.677c.679-1.242 1.902-1.983 3.271-1.983s2.592.741 3.271 1.983l16.76 30.677c.688 1.258.661 2.805-.07 4.038-.379.639-.91 1.136-1.529 1.455l5.972 10.732c.701 1.26.682 2.813-.048 4.054-.513.873-1.309 1.484-2.227 1.739l6.236 9.483c.823 1.251.89 2.852.176 4.176-.675 1.252-1.901 2-3.279 2h-15.309v9.753c-.001 1.105-.897 2-2.001 2zm-13.905-4h11.905v-9.753c0-1.104.896-2 2-2h17.056l-8.172-12.428c-.404-.614-.438-1.4-.089-2.048s1.025-1.051 1.76-1.051h2.345l-7.345-13.281c-.345-.619-.336-1.375.023-1.986s1.015-.986 1.724-.986h1.21l-16.465-30.217-16.509 30.217h1.254c.709 0 1.365.375 1.724.986s.368 1.367.023 1.986l-7.389 13.282h2.391c.735 0 1.411.403 1.76 1.051s.315 1.434-.089 2.048l-8.172 12.428h17.056c1.104 0 2 .896 2 2v9.752zm31.075-11.724c-.053.022-.091.053-.104.073zm-.067-.029h.109l1.529-1.077z" fill="#3762cc"/><path d="m33.787 122.657h15.905v11.753h-15.905z" fill="#eaa97d"/><path d="m68.433 119.58-8.187-12.449h2.641c1.38 0 2.228-1.66 1.508-2.953l-7.402-13.301h1.505c1.374 0 2.222-1.646 1.515-2.939l-16.76-30.676c-.686-1.256-2.344-1.256-3.031 0l-16.76 30.676c-.707 1.294.142 2.939 1.515 2.939h1.505l-7.402 13.301c-.72 1.293.128 2.953 1.508 2.953h2.641l-8.187 12.449c-.844 1.284-.009 3.077 1.433 3.077h17.308 15.905 17.312c1.442 0 2.277-1.793 1.433-3.077z" fill="#6bdddd"/><path d="m49.692 136.41h-15.905c-1.104 0-2-.896-2-2v-9.753h-15.308c-1.378 0-2.604-.747-3.279-1.999-.715-1.324-.647-2.925.175-4.177l6.237-9.482c-.918-.255-1.714-.866-2.228-1.739-.73-1.242-.748-2.795-.048-4.054l5.972-10.732c-.619-.318-1.149-.815-1.528-1.454-.731-1.232-.759-2.78-.071-4.04l16.76-30.676c.678-1.242 1.901-1.983 3.271-1.983 1.369 0 2.592.741 3.271 1.983l16.76 30.676c.688 1.259.661 2.807-.071 4.039-.379.639-.91 1.136-1.528 1.455l5.972 10.732c.7 1.259.682 2.812-.048 4.054-.513.873-1.31 1.484-2.228 1.739l6.236 9.482c.822 1.252.89 2.853.175 4.177-.675 1.252-1.901 1.999-3.279 1.999h-15.308v9.753c0 1.105-.896 2-2 2zm-13.905-4h11.905v-9.753c0-1.104.896-2 2-2h17.056l-8.172-12.427c-.404-.614-.438-1.4-.089-2.048.349-.647 1.025-1.051 1.76-1.051h2.345l-7.345-13.281c-.345-.619-.336-1.375.023-1.986s1.015-.986 1.724-.986h1.21l-16.465-30.217-16.509 30.217h1.255c.709 0 1.365.375 1.724.986s.368 1.367.023 1.986l-7.391 13.281h2.391c.735 0 1.412.403 1.76 1.051.349.647.315 1.434-.089 2.048l-8.172 12.427h17.056c1.104 0 2 .896 2 2zm31.076-11.723c-.053.022-.091.053-.104.073zm-.068-.03h.109l1.529-1.077z" fill="#3762cc"/><path d="m91.609 156.344h15.905v11.753h-15.905z" fill="#eaa97d"/><path d="m126.255 153.267-8.187-12.449h2.641c1.38 0 2.228-1.66 1.508-2.953l-7.402-13.301h1.505c1.374 0 2.222-1.646 1.515-2.939l-16.76-30.676c-.686-1.256-2.344-1.256-3.031 0l-16.76 30.676c-.707 1.294.142 2.939 1.515 2.939h1.505l-7.402 13.301c-.72 1.293.128 2.953 1.508 2.953h2.641l-8.187 12.449c-.844 1.284-.009 3.077 1.433 3.077h17.308 15.905 17.308c1.446 0 2.281-1.793 1.437-3.077z" fill="#6bdddd"/><path d="m107.514 170.098h-15.905c-1.104 0-2-.896-2-2v-9.754h-15.309c-1.378 0-2.604-.747-3.279-1.999-.715-1.324-.647-2.925.175-4.177l6.237-9.482c-.918-.255-1.714-.866-2.228-1.739-.73-1.242-.748-2.796-.048-4.054l5.972-10.732c-.619-.318-1.149-.815-1.528-1.454-.731-1.232-.759-2.78-.071-4.039l16.76-30.677c.679-1.242 1.902-1.983 3.271-1.983s2.592.741 3.271 1.983l16.76 30.676c.688 1.259.661 2.807-.071 4.039-.379.639-.91 1.136-1.528 1.455l5.972 10.732c.7 1.258.682 2.812-.048 4.054-.513.873-1.31 1.484-2.228 1.739l6.236 9.482c.822 1.252.89 2.853.175 4.177-.675 1.252-1.901 1.999-3.279 1.999h-15.309v9.754c.002 1.104-.894 2-1.998 2zm-13.905-4h11.905v-9.754c0-1.104.896-2 2-2h17.056l-8.172-12.427c-.404-.614-.438-1.4-.089-2.048.349-.647 1.025-1.051 1.76-1.051h2.345l-7.345-13.281c-.345-.619-.336-1.375.023-1.986s1.015-.986 1.724-.986h1.21l-16.465-30.217-16.509 30.217h1.255c.709 0 1.365.375 1.724.986s.368 1.367.023 1.986l-7.391 13.281h2.391c.735 0 1.412.403 1.76 1.051.349.647.315 1.434-.089 2.048l-8.172 12.427h17.056c1.104 0 2 .896 2 2zm31.076-11.725c-.053.022-.091.053-.104.073zm-.068-.029h.109l1.529-1.077z" fill="#3762cc"/><path d="m196.648 72.958h-28c-1.657 0-3-1.343-3-3v-58.138c0-1.657 1.343-3 3-3h28c1.657 0 3 1.343 3 3v58.138c0 1.657-1.343 3-3 3z" fill="#e0ebfc"/><g fill="#a4c9ff"><path d="m178.124 26.56h-4.643c-1.105 0-2-.895-2-2v-6.703c0-1.105.895-2 2-2h4.643c1.105 0 2 .895 2 2v6.703c0 1.104-.895 2-2 2z"/><path d="m191.482 26.56h-4.643c-1.105 0-2-.895-2-2v-6.703c0-1.105.895-2 2-2h4.643c1.105 0 2 .895 2 2v6.703c0 1.104-.896 2-2 2z"/><path d="m178.124 45.24h-4.643c-1.105 0-2-.895-2-2v-6.703c0-1.105.895-2 2-2h4.643c1.105 0 2 .895 2 2v6.703c0 1.105-.895 2-2 2z"/><path d="m191.482 45.24h-4.643c-1.105 0-2-.895-2-2v-6.703c0-1.105.895-2 2-2h4.643c1.105 0 2 .895 2 2v6.703c0 1.105-.896 2-2 2z"/><path d="m178.124 63.921h-4.643c-1.105 0-2-.895-2-2v-6.703c0-1.105.895-2 2-2h4.643c1.105 0 2 .895 2 2v6.703c0 1.105-.895 2-2 2z"/><path d="m191.482 63.921h-4.643c-1.105 0-2-.895-2-2v-6.703c0-1.105.895-2 2-2h4.643c1.105 0 2 .895 2 2v6.703c0 1.105-.896 2-2 2z"/></g><path d="m196.648 74.958h-28c-2.757 0-5-2.243-5-5v-58.138c0-2.757 2.243-5 5-5h28c2.757 0 5 2.243 5 5v58.138c0 2.757-2.243 5-5 5zm-28-64.138c-.551 0-1 .448-1 1v58.138c0 .552.449 1 1 1h28c.551 0 1-.448 1-1v-58.138c0-.552-.449-1-1-1z" fill="#3762cc"/><path d="m176.172 88.968h-28c-1.657 0-3-1.343-3-3v-58.138c0-1.657 1.343-3 3-3h28c1.657 0 3 1.343 3 3v58.138c0 1.657-1.343 3-3 3z" fill="#e0ebfc"/><path d="m157.648 42.57h-4.643c-1.105 0-2-.895-2-2v-6.703c0-1.105.895-2 2-2h4.643c1.105 0 2 .895 2 2v6.703c0 1.104-.895 2-2 2z" fill="#a4c9ff"/><path d="m171.005 42.57h-4.643c-1.105 0-2-.895-2-2v-6.703c0-1.105.895-2 2-2h4.643c1.105 0 2 .895 2 2v6.703c0 1.104-.895 2-2 2z" fill="#a4c9ff"/><path d="m157.648 61.25h-4.643c-1.105 0-2-.895-2-2v-6.703c0-1.105.895-2 2-2h4.643c1.105 0 2 .895 2 2v6.703c0 1.105-.895 2-2 2z" fill="#a4c9ff"/><path d="m171.005 61.25h-4.643c-1.105 0-2-.895-2-2v-6.703c0-1.105.895-2 2-2h4.643c1.105 0 2 .895 2 2v6.703c0 1.105-.895 2-2 2z" fill="#a4c9ff"/><path d="m157.648 79.931h-4.643c-1.105 0-2-.895-2-2v-6.703c0-1.105.895-2 2-2h4.643c1.105 0 2 .895 2 2v6.703c0 1.105-.895 2-2 2z" fill="#a4c9ff"/><path d="m171.005 79.931h-4.643c-1.105 0-2-.895-2-2v-6.703c0-1.105.895-2 2-2h4.643c1.105 0 2 .895 2 2v6.703c0 1.105-.895 2-2 2z" fill="#a4c9ff"/><path d="m176.172 90.968h-28c-2.757 0-5-2.243-5-5v-58.138c0-2.757 2.243-5 5-5h28c2.757 0 5 2.243 5 5v58.138c0 2.757-2.243 5-5 5zm-28-64.138c-.551 0-1 .448-1 1v58.138c0 .552.449 1 1 1h28c.551 0 1-.448 1-1v-58.138c0-.552-.449-1-1-1z" fill="#3762cc"/><path d="m202.217 63.192c0-4.964-4.024-8.988-8.988-8.988-3.538 0-6.589 2.049-8.056 5.021-.307-.031-.617-.048-.932-.048-4.47 0-8.167 3.266-8.861 7.539-.548-.104-1.111-.164-1.689-.164-4.964 0-8.988 4.024-8.988 8.988 0 1.155.226 2.256.623 3.271-3.598 1.174-6.2 4.552-6.2 8.542 0 4.964 4.024 8.988 8.988 8.988 3.992 0 7.372-2.605 8.544-6.206.148.007.294.022.444.022 4.964 0 8.988-4.024 8.988-8.988 0-.354-.026-.703-.066-1.046 1.255.666 2.685 1.046 4.204 1.046 4.964 0 8.988-4.024 8.988-8.988 0-.714-.092-1.406-.25-2.072 1.987-1.649 3.251-4.135 3.251-6.917z" fill="#a4c9ff"/><path d="m233.098 63.103c0-4.964-4.024-8.988-8.988-8.988-3.538 0-6.589 2.049-8.056 5.021-.307-.031-.617-.048-.932-.048-4.47 0-8.167 3.266-8.861 7.539-.548-.104-1.111-.164-1.689-.164-4.964 0-8.988 4.024-8.988 8.988 0 1.155.226 2.256.623 3.271-3.598 1.174-6.2 4.552-6.2 8.542 0 4.964 4.024 8.988 8.988 8.988 3.992 0 7.372-2.605 8.544-6.206.148.007.294.022.444.022 4.964 0 8.988-4.024 8.988-8.988 0-.354-.026-.703-.066-1.046 1.255.666 2.685 1.046 4.204 1.046 4.964 0 8.988-4.024 8.988-8.988 0-.714-.092-1.406-.25-2.072 1.987-1.65 3.251-4.135 3.251-6.917z" fill="#a4c9ff"/><path d="m215.517 167.333h-65.986c-1.105 0-2-.895-2-2v-25c0-1.105.895-2 2-2h65.986c1.105 0 2 .895 2 2v25c0 1.105-.895 2-2 2z" fill="#e0ebfc"/><path d="m158.208 109.98h18v28.354h-18z" fill="#e0ebfc"/><path d="m177.708 109.98h-21c-1.105 0-2-.895-2-2v-6c0-1.105.895-2 2-2h21c1.105 0 2 .895 2 2v6c0 1.104-.896 2-2 2z" fill="#e0ebfc"/><path d="m189.089 109.98h18v28.354h-18z" fill="#e0ebfc"/><path d="m208.589 109.98h-21c-1.105 0-2-.895-2-2v-6c0-1.105.895-2 2-2h21c1.105 0 2 .895 2 2v6c0 1.104-.896 2-2 2z" fill="#e0ebfc"/><path d="m176.208 140.333h-18c-1.104 0-2-.896-2-2v-28.354c0-1.104.896-2 2-2h18c1.104 0 2 .896 2 2v28.354c0 1.105-.895 2-2 2zm-16-4h14v-24.354h-14z" fill="#3762cc"/><path d="m177.708 111.979h-21c-2.206 0-4-1.794-4-4v-6c0-2.206 1.794-4 4-4h21c2.206 0 4 1.794 4 4v6c0 2.207-1.794 4-4 4zm-21-10v6h21.002l-.002-6z" fill="#3762cc"/><path d="m207.089 140.333h-18c-1.104 0-2-.896-2-2v-28.354c0-1.104.896-2 2-2h18c1.104 0 2 .896 2 2v28.354c0 1.105-.896 2-2 2zm-16-4h14v-24.354h-14z" fill="#3762cc"/><path d="m208.589 111.979h-21c-2.206 0-4-1.794-4-4v-6c0-2.206 1.794-4 4-4h21c2.206 0 4 1.794 4 4v6c0 2.207-1.795 4-4 4zm-21-10v6h21.002l-.002-6z" fill="#3762cc"/><path d="m215.517 169.333h-65.986c-2.206 0-4-1.794-4-4v-25c0-2.206 1.794-4 4-4h65.986c2.206 0 4 1.794 4 4v25c0 2.206-1.794 4-4 4zm-65.986-29v25h65.988l-.002-25z" fill="#3762cc"/><path d="m133.184 238.228c-40.561 0-77.724-22.203-96.988-57.944-.334-.62-.317-1.37.043-1.975s1.013-.975 1.717-.975h190.454c.704 0 1.356.37 1.717.975s.377 1.354.043 1.975c-19.262 35.74-56.425 57.944-96.986 57.944zm-91.817-56.894c18.985 32.712 53.858 52.894 91.817 52.894s72.832-20.182 91.816-52.894z" fill="#3762cc"/><path d="m133.184 22c-1.654 0-3-1.346-3-3v-11c0-1.654 1.346-3 3-3s3 1.346 3 3v11c0 1.654-1.346 3-3 3z" fill="#4671c6"/><path d="m133.184 215.778c-1.654 0-3-1.346-3-3v-24.223c0-1.654 1.346-3 3-3s3 1.346 3 3v24.223c0 1.655-1.346 3-3 3zm0-48.444c-1.654 0-3-1.346-3-3v-24.223c0-1.654 1.346-3 3-3s3 1.346 3 3v24.223c0 1.654-1.346 3-3 3zm0-48.444c-1.654 0-3-1.346-3-3v-24.223c0-1.654 1.346-3 3-3s3 1.346 3 3v24.223c0 1.654-1.346 3-3 3zm0-48.445c-1.654 0-3-1.346-3-3v-24.222c0-1.654 1.346-3 3-3s3 1.346 3 3v24.223c0 1.654-1.346 2.999-3 2.999z" fill="#4671c6"/><path d="m133.184 251c-1.654 0-3-1.346-3-3v-11c0-1.654 1.346-3 3-3s3 1.346 3 3v11c0 1.654-1.346 3-3 3z" fill="#4671c6"/><path d="m123.511 194.8c-1.607 0-3.144-.599-4.326-1.687-1.499-1.379-3.848-1.38-5.348 0-1.183 1.088-2.719 1.687-4.326 1.687s-3.144-.599-4.326-1.687c-1.5-1.379-3.849-1.38-5.348 0-1.183 1.088-2.719 1.687-4.326 1.687-.112 0-.22.015-.327.033-.107-.018-.215-.033-.327-.033-1.607 0-3.144-.599-4.326-1.687-1.499-1.379-3.848-1.38-5.348 0-1.183 1.088-2.719 1.687-4.326 1.687s-3.144-.599-4.326-1.687c-1.5-1.379-3.849-1.38-5.348 0-1.183 1.088-2.719 1.687-4.326 1.687-1.104 0-2 .896-2 2s.896 2 2 2c2.613 0 5.111-.975 6.966-2.743 1.923 1.77 4.421 2.743 7.034 2.743s5.111-.975 6.966-2.743c1.923 1.77 4.421 2.743 7.034 2.743.112 0 .22-.016.327-.033.107.018.215.033.327.033 2.613 0 5.111-.975 6.966-2.743 1.923 1.77 4.421 2.743 7.034 2.743s5.111-.975 6.966-2.743c1.923 1.77 4.421 2.743 7.034 2.743 1.104 0 2-.896 2-2s-.896-2-2-2z" fill="#e0ebfc"/><path d="m121.511 210.8c-2.613 0-5.111-.974-7.034-2.743-1.855 1.769-4.353 2.743-6.966 2.743s-5.111-.974-7.034-2.743c-1.855 1.769-4.353 2.743-6.966 2.743-1.104 0-2-.896-2-2s.896-2 2-2c1.607 0 3.143-.599 4.326-1.687 1.5-1.38 3.849-1.379 5.348 0 1.183 1.088 2.719 1.687 4.326 1.687s3.143-.599 4.326-1.687c1.5-1.38 3.849-1.379 5.348 0 1.183 1.088 2.719 1.687 4.326 1.687 1.104 0 2 .896 2 2s-.896 2-2 2z" fill="#e0ebfc"/><path d="m199.511 194.8c-1.607 0-3.143-.599-4.326-1.687-1.5-1.38-3.849-1.379-5.348 0-1.183 1.088-2.719 1.687-4.326 1.687s-3.143-.599-4.326-1.687c-1.5-1.38-3.849-1.379-5.348 0-1.183 1.088-2.719 1.687-4.326 1.687-.112 0-.22.015-.327.033-.107-.018-.215-.033-.327-.033-1.607 0-3.143-.599-4.326-1.687-1.5-1.38-3.849-1.379-5.348 0-1.183 1.088-2.719 1.687-4.326 1.687s-3.143-.599-4.326-1.687c-1.5-1.38-3.849-1.379-5.348 0-1.183 1.088-2.719 1.687-4.326 1.687-1.104 0-2 .896-2 2s.896 2 2 2c2.613 0 5.111-.974 7.034-2.743 1.855 1.769 4.353 2.743 6.966 2.743s5.111-.974 7.034-2.743c1.855 1.769 4.353 2.743 6.966 2.743.112 0 .22-.016.327-.033.107.018.215.033.327.033 2.613 0 5.111-.974 7.034-2.743 1.855 1.769 4.353 2.743 6.966 2.743s5.111-.974 7.034-2.743c1.855 1.769 4.353 2.743 6.966 2.743 1.104 0 2-.896 2-2s-.896-2-2-2z" fill="#e0ebfc"/><path d="m144.857 210.8c2.613 0 5.111-.974 7.034-2.743 1.855 1.769 4.353 2.743 6.966 2.743s5.111-.974 7.034-2.743c1.855 1.769 4.353 2.743 6.966 2.743 1.104 0 2-.896 2-2s-.896-2-2-2c-1.607 0-3.143-.599-4.326-1.687-1.5-1.38-3.849-1.379-5.348 0-1.183 1.088-2.719 1.687-4.326 1.687s-3.143-.599-4.326-1.687c-1.5-1.38-3.849-1.379-5.348 0-1.183 1.088-2.719 1.687-4.326 1.687-1.104 0-2 .896-2 2s.896 2 2 2z" fill="#e0ebfc"/><path d="m177.647 177.97-21.147-22.69c-1.238-1.328-3.463-.452-3.463 1.364v4.912c0 1.105-.895 2-2 2h-19.376-17.446-3.744-20.231-.79c-1.105 0-2 .895-2 2v27.556c0 1.105.895 2 2 2h.789 20.231 3.744 17.446 19.376c1.105 0 2 .895 2 2v4.912c0 1.816 2.225 2.692 3.463 1.364l21.147-22.69c.717-.769.717-1.96.001-2.728z" fill="#f9a7a7"/></svg>