<svg id="Layer_1" enable-background="new 0 0 256 256" height="512" viewBox="0 0 256 256" width="512" xmlns="http://www.w3.org/2000/svg"><path d="m24.449 41.148c-3.761 0-7.219-1.268-10-3.379v208.231c0 1.105.895 2 2 2h16c1.105 0 2-.895 2-2v-208.23c-2.781 2.111-6.238 3.378-10 3.378z" fill="#ffea92"/><circle cx="24.449" cy="24.574" fill="#ffea92" r="16.574"/><path d="m32.449 250h-16c-2.206 0-4-1.794-4-4v-208.23c0-.76.431-1.454 1.11-1.791.682-.341 1.494-.262 2.099.198 2.562 1.944 5.602 2.972 8.791 2.972s6.229-1.027 8.791-2.972c.604-.46 1.416-.539 2.099-.198.68.337 1.11 1.031 1.11 1.791v208.23c0 2.206-1.794 4-4 4zm-16-208.67v204.67h16v-204.67c-2.483 1.197-5.195 1.818-8 1.818s-5.516-.621-8-1.818z" fill="#3762cc"/><path d="m24.449 43.148c-10.242 0-18.574-8.332-18.574-18.574s8.332-18.574 18.574-18.574 18.574 8.332 18.574 18.574-8.332 18.574-18.574 18.574zm0-33.148c-8.036 0-14.574 6.538-14.574 14.574s6.538 14.574 14.574 14.574 14.574-6.538 14.574-14.574-6.538-14.574-14.574-14.574z" fill="#3762cc"/><path d="m136.301 81.925c0 15.578-3.199 29.115-7.904 36.005l42.394-4.362c3.363-7.491 5.51-18.882 5.51-31.643s-2.148-24.152-5.51-31.643l-42.394-4.362c4.704 6.89 7.904 20.428 7.904 36.005z" fill="#f9a7a7"/><path d="m176.301 81.925c0 12.761-2.148 24.152-5.51 31.643l41.652-4.286c2.398-7.242 3.858-16.833 3.858-27.357s-1.461-20.115-3.858-27.357l-41.652-4.286c3.362 7.491 5.51 18.882 5.51 31.643z" fill="#e0ebfc"/><path d="m248.125 81.925c0-13.625-4.293-24.672-9.589-24.672l-26.094-2.685c2.398 7.242 3.858 16.834 3.858 27.357s-1.461 20.115-3.858 27.357l26.094-2.685c5.296.001 9.589-11.046 9.589-24.672z" fill="#f9a7a7"/><path d="m81.315 41.075v.001h.008z" fill="#e0ebfc"/><path d="m96.301 81.925c0 21.623-6.164 39.309-13.963 40.744l46.059-4.739c4.705-6.89 7.904-20.427 7.904-36.005s-3.2-29.115-7.905-36.005l-46.062-4.74c7.801 1.43 13.967 19.12 13.967 40.745z" fill="#e0ebfc"/><ellipse cx="81.315" cy="81.925" fill="#a4c9ff" rx="14.986" ry="40.849"/><g fill="#3762cc"><path d="m81.321 43.076-.007-1.953-.276 1.933.276-1.98.007-1.999v1.952l.276-1.933.007.001c1.039.148 1.786 1.074 1.712 2.121s-.945 1.858-1.995 1.858z"/><path d="m82.337 124.669c-.983 0-1.835-.723-1.978-1.716-.152-1.063.562-2.057 1.617-2.251 5.952-1.097 12.324-16.939 12.324-38.776 0-21.843-6.374-37.687-12.327-38.779-1.056-.193-1.771-1.187-1.618-2.25.151-1.063 1.093-1.832 2.185-1.706l156.108 16.063c7.455.137 11.477 13.806 11.477 26.671s-4.021 26.535-11.477 26.672l-156.104 16.061c-.069.008-.139.011-.207.011zm7.142-80.743c5.814 7.646 8.821 23.168 8.821 38 0 14.83-3.007 30.351-8.821 37.998l148.852-15.315c.068-.007.137-.011.205-.011 3.169 0 7.589-8.626 7.589-22.673s-4.42-22.672-7.589-22.672c-.068 0-.137-.004-.205-.011z"/><path d="m81.314 124.774c-11.032 0-16.985-22.077-16.985-42.85s5.953-42.85 16.985-42.85c11.033 0 16.986 22.077 16.986 42.85s-5.952 42.85-16.986 42.85zm0-81.699c-6.142 0-12.985 15.955-12.985 38.85s6.844 38.85 12.985 38.85c6.143 0 12.986-15.955 12.986-38.85s-6.843-38.85-12.986-38.85z"/><path d="m79.463 124.774c-.483 0-.969-.175-1.354-.528l-43.478-40c-.406-.374-.64-.898-.646-1.451-.006-.552.217-1.082.615-1.464l43.478-41.699c.797-.765 2.063-.738 2.828.059.765.798.738 2.063-.059 2.828l-41.94 40.225 41.911 38.559c.813.748.865 2.013.117 2.826-.394.428-.932.645-1.472.645z"/></g><path d="m35.048 87h-21.197c-2.334 0-4.226-1.892-4.226-4.226 0-2.334 1.892-4.226 4.226-4.226h21.197c2.334 0 4.226 1.892 4.226 4.226-.001 2.334-1.892 4.226-4.226 4.226z" fill="#a4c9ff"/><path d="m35.048 89h-21.197c-3.433 0-6.226-2.793-6.226-6.226s2.793-6.226 6.226-6.226h21.197c3.433 0 6.226 2.793 6.226 6.226s-2.794 6.226-6.226 6.226zm-21.197-8.451c-1.228 0-2.226.998-2.226 2.226s.998 2.225 2.226 2.225h21.197c1.228 0 2.226-.998 2.226-2.226s-.998-2.226-2.226-2.226h-21.197z" fill="#3762cc"/><path d="m193.064 142.336h-140.365c-2.761 0-5-2.239-5-5s2.239-5 5-5h140.364c4.5 0 8.8-1.849 11.796-5.073 2.874-3.093 4.287-7.11 3.979-11.313-.581-7.912-7.261-14.109-15.206-14.109-2.762 0-5-2.239-5-5s2.238-5 5-5c13.156 0 24.217 10.268 25.179 23.377.515 7.006-1.839 13.701-6.626 18.853-4.882 5.252-11.851 8.265-19.121 8.265z" fill="#a4c9ff"/><path d="m159.186 215.002c-7.547 0-14.558-3.403-19.234-9.337-1.71-2.169-1.337-5.313.832-7.022 2.167-1.709 5.313-1.338 7.021.832 2.769 3.512 6.917 5.527 11.381 5.527 7.545 0 13.887-5.885 14.438-13.396.293-3.989-1.049-7.803-3.777-10.739-2.846-3.063-6.931-4.82-11.208-4.82h-135.028c-2.761 0-5-2.239-5-5s2.239-5 5-5h135.028c7.047 0 13.802 2.92 18.534 8.012 4.642 4.995 6.923 11.486 6.424 18.279-.933 12.708-11.655 22.664-24.411 22.664z" fill="#a4c9ff"/><path d="m241.804 158.922h-175.567c-2.761 0-5-2.239-5-5s2.239-5 5-5h175.567c2.762 0 5 2.239 5 5s-2.238 5-5 5z" fill="#a4c9ff"/></svg>